<svg width="50" height="40" viewBox="0 0 150 140" fill="none" xmlns="http://www.w3.org/2000/svg">
<path d="M124.017 24.2004C111.467 11.468 91.7194 10.5455 78.0677 22.0651C78.0514 22.0792 76.2905 23.5449 74.0079 23.5449C71.6675 23.5449 69.9966 22.1072 69.9319 22.051C56.2964 10.5455 36.5491 11.468 23.9982 24.2004C17.552 30.74 14 39.4359 14 48.6867C14 57.9376 17.552 66.6335 23.8759 73.0371L63.4788 120.073C66.1146 123.204 69.9527 125 74.0079 125C78.0653 125 81.9012 123.204 84.537 120.076L124.015 73.1753C137.328 59.6725 137.328 37.7032 124.017 24.2004ZM120.632 69.9981L81.0288 117.034C79.2724 119.118 76.7129 120.317 74.0079 120.317C71.3029 120.317 68.7456 119.121 66.9869 117.034L27.264 69.8622C21.6879 64.2054 18.616 56.6849 18.616 48.6867C18.616 40.6861 21.6879 33.168 27.2618 27.5112C33.0387 21.6483 40.5812 18.6818 48.1422 18.6818C54.78 18.6818 61.4316 20.9693 66.9155 25.5959C67.2109 25.8652 69.9297 28.2277 74.0079 28.2277C77.9731 28.2277 80.7611 25.8932 81.0357 25.6521C92.8272 15.7012 109.902 16.502 120.754 27.5112C132.264 39.1877 132.264 58.1857 120.632 69.9981Z" stroke="#535353" stroke-width="5"/>
</svg>
