<svg width="50" height="40" viewBox="0 0 150 140" fill="none" xmlns="http://www.w3.org/2000/svg">
<path d="M125.017 25.2004C112.467 12.468 92.7194 11.5455 79.0677 23.0651C79.0514 23.0792 77.2905 24.5449 75.0079 24.5449C72.6675 24.5449 70.9966 23.1072 70.9319 23.051C57.2964 11.5455 37.5491 12.468 24.9982 25.2004C18.552 31.74 15 40.4359 15 49.6867C15 58.9376 18.552 67.6335 24.8759 74.0371L64.4788 121.073C67.1146 124.204 70.9527 126 75.0079 126C79.0653 126 82.9012 124.204 85.537 121.076L125.015 74.1753C138.328 60.6725 138.328 38.7032 125.017 25.2004ZM121.632 70.9981L82.0288 118.034C80.2724 120.118 77.7129 121.317 75.0079 121.317C72.3029 121.317 69.7456 120.121 67.9869 118.034L28.264 70.8622C22.6879 65.2054 19.616 57.6849 19.616 49.6867C19.616 41.6861 22.6879 34.168 28.2618 28.5112C34.0387 22.6483 41.5812 19.6818 49.1422 19.6818C55.78 19.6818 62.4316 21.9693 67.9155 26.5959C68.2109 26.8652 70.9297 29.2277 75.0079 29.2277C78.9731 29.2277 81.7611 26.8932 82.0357 26.6521C93.8272 16.7012 110.902 17.502 121.754 28.5112C133.264 40.1877 133.264 59.1857 121.632 70.9981Z" fill="#1DB954"/>
<path d="M121.632 70.9981L82.0288 118.034C80.2724 120.118 77.7129 121.317 75.0079 121.317C72.3029 121.317 69.7456 120.121 67.9869 118.034L28.264 70.8622C22.6879 65.2054 19.616 57.6849 19.616 49.6867C19.616 41.6861 22.6879 34.168 28.2618 28.5112C34.0387 22.6483 41.5812 19.6818 49.1422 19.6818C55.78 19.6818 62.4316 21.9693 67.9155 26.5959C68.2109 26.8652 70.9297 29.2277 75.0079 29.2277C78.9731 29.2277 81.7611 26.8932 82.0357 26.6521C93.8272 16.7012 110.902 17.502 121.754 28.5112C133.264 40.1877 133.264 59.1857 121.632 70.9981Z" fill="#1DB954"/>
<path d="M125.017 25.2004C112.467 12.468 92.7194 11.5455 79.0677 23.0651C79.0514 23.0792 77.2905 24.5449 75.0079 24.5449C72.6675 24.5449 70.9966 23.1072 70.9319 23.051C57.2964 11.5455 37.5491 12.468 24.9982 25.2004C18.552 31.74 15 40.4359 15 49.6867C15 58.9376 18.552 67.6335 24.8759 74.0371L64.4788 121.073C67.1146 124.204 70.9527 126 75.0079 126C79.0653 126 82.9012 124.204 85.537 121.076L125.015 74.1753C138.328 60.6725 138.328 38.7032 125.017 25.2004ZM121.632 70.9981L82.0288 118.034C80.2724 120.118 77.7129 121.317 75.0079 121.317C72.3029 121.317 69.7456 120.121 67.9869 118.034L28.264 70.8622C22.6879 65.2054 19.616 57.6849 19.616 49.6867C19.616 41.6861 22.6879 34.168 28.2618 28.5112C34.0387 22.6483 41.5812 19.6818 49.1422 19.6818C55.78 19.6818 62.4316 21.9693 67.9155 26.5959C68.2109 26.8652 70.9297 29.2277 75.0079 29.2277C78.9731 29.2277 81.7611 26.8932 82.0357 26.6521C93.8272 16.7012 110.902 17.502 121.754 28.5112C133.264 40.1877 133.264 59.1857 121.632 70.9981Z" stroke="#1DB954" stroke-width="5"/>
<path d="M121.632 70.9981L82.0288 118.034C80.2724 120.118 77.7129 121.317 75.0079 121.317C72.3029 121.317 69.7456 120.121 67.9869 118.034L28.264 70.8622C22.6879 65.2054 19.616 57.6849 19.616 49.6867C19.616 41.6861 22.6879 34.168 28.2618 28.5112C34.0387 22.6483 41.5812 19.6818 49.1422 19.6818C55.78 19.6818 62.4316 21.9693 67.9155 26.5959C68.2109 26.8652 70.9297 29.2277 75.0079 29.2277C78.9731 29.2277 81.7611 26.8932 82.0357 26.6521C93.8272 16.7012 110.902 17.502 121.754 28.5112C133.264 40.1877 133.264 59.1857 121.632 70.9981Z" stroke="#1DB954" stroke-width="5"/>
</svg>
